<svg width="24" height="24" viewBox="0 0 24 24" fill="none" xmlns="http://www.w3.org/2000/svg">
<path d="M17.8571 12C17.8571 13.1834 18.8165 14.1428 20 14.1428C21.1835 14.1428 22.1429 13.1834 22.1429 12C22.1429 10.8165 21.1835 9.85712 20 9.85712C18.8165 9.85712 17.8571 10.8165 17.8571 12Z" fill="#202226"/>
<path d="M9.99999 12C9.99999 13.1834 10.9594 14.1428 12.1428 14.1428C13.3263 14.1428 14.2857 13.1834 14.2857 12C14.2857 10.8165 13.3263 9.85712 12.1428 9.85712C10.9594 9.85712 9.99999 10.8165 9.99999 12Z" fill="#202226"/>
<path d="M2.14284 12C2.14284 13.1834 3.10223 14.1428 4.2857 14.1428C5.46917 14.1428 6.42856 13.1834 6.42856 12C6.42856 10.8165 5.46917 9.85712 4.2857 9.85712C3.10223 9.85712 2.14284 10.8165 2.14284 12Z" fill="#202226"/>
</svg>
