<svg width="20" height="20" viewBox="0 0 20 20" fill="none" xmlns="http://www.w3.org/2000/svg">

<mask id="mask0_55_1095" style="mask-type:alpha" maskUnits="userSpaceOnUse" x="0" y="1" width="20" height="18">
<path fill-rule="evenodd" clip-rule="evenodd" d="M0.208252 6.52904C0.208252 3.55157 2.64373 1.15613 5.62492 1.15613C7.19551 1.15613 8.52431 1.99649 9.3831 2.7083C9.61322 2.89903 9.81991 3.08912 9.99992 3.26609C10.1799 3.08912 10.3866 2.89903 10.6167 2.7083C11.4755 1.99649 12.8043 1.15613 14.3749 1.15613C17.3561 1.15613 19.7916 3.55157 19.7916 6.52904C19.7916 7.64553 19.5668 9.45985 18.3275 11.6098C17.0917 13.7537 14.8798 16.1748 10.9935 18.5639L10.9894 18.5664C10.6912 18.7478 10.3489 18.8438 9.99992 18.8438C9.65091 18.8438 9.30862 18.7478 9.01046 18.5664L9.00638 18.5639C5.12007 16.1748 2.90814 13.7537 1.67231 11.6098C0.433046 9.45985 0.208252 7.64553 0.208252 6.52904ZM10.8344 5.44629C10.6377 5.70946 10.3285 5.86446 9.99992 5.86446C9.67175 5.86446 9.36281 5.70982 9.16614 5.4472C9.16591 5.4469 9.16568 5.44659 9.16545 5.44629L9.16575 5.44668L9.16614 5.4472L9.16621 5.44729L9.16661 5.44783C9.16665 5.44788 9.16623 5.44732 9.16536 5.44618L9.15478 5.43244C9.14418 5.4188 9.12659 5.39646 9.1024 5.36666C9.05392 5.30697 8.97937 5.21793 8.88168 5.10936C8.6851 4.89086 8.40122 4.60038 8.05364 4.31229C7.3289 3.7116 6.4702 3.23946 5.62492 3.23946C3.77436 3.23946 2.29158 4.72202 2.29158 6.52904C2.29158 7.34368 2.4496 8.78655 3.47725 10.5693C4.4991 12.3421 6.41278 14.5061 9.99992 16.729C13.5871 14.5061 15.5007 12.3421 16.5226 10.5693C17.5502 8.78655 17.7083 7.34368 17.7083 6.52904C17.7083 4.72202 16.2255 3.23946 14.3749 3.23946C13.5296 3.23946 12.6709 3.7116 11.9462 4.31229C11.5986 4.60038 11.3147 4.89086 11.1181 5.10936C11.0205 5.21793 10.9459 5.30697 10.8974 5.36666C10.8732 5.39646 10.8557 5.4188 10.8451 5.43244L10.8345 5.44618C10.8339 5.44694 10.8335 5.44744 10.8333 5.44767L10.8336 5.44729L10.8341 5.44668L10.8344 5.44629Z" fill="#006FFD"/>
</mask>
<g mask="url(#mask0_55_1095)">
<rect width="20" height="20" fill="#2F3036"/>
</g>
</svg>
