<svg width="16" height="16" viewBox="0 0 16 16" fill="none" xmlns="http://www.w3.org/2000/svg">
<g clip-path="url(#clip0_124_1649)">
<path d="M6.58669 6.58667C6.39019 6.76977 6.23259 6.99057 6.12327 7.2359C6.01396 7.48123 5.95518 7.74607 5.95045 8.01461C5.94571 8.28315 5.99511 8.54989 6.0957 8.79893C6.19629 9.04796 6.346 9.27419 6.53592 9.46411C6.72584 9.65402 6.95206 9.80374 7.2011 9.90433C7.45013 10.0049 7.71688 10.0543 7.98542 10.0496C8.25396 10.0448 8.51879 9.98606 8.76412 9.87675C9.00946 9.76744 9.23026 9.60983 9.41336 9.41334" stroke="#666666" stroke-width="2" stroke-linecap="round" stroke-linejoin="round"/>
<path d="M7.15332 3.38671C7.43419 3.35171 7.71694 3.3339 7.99999 3.33337C12.6667 3.33337 14.6667 8.00004 14.6667 8.00004C14.3686 8.63812 13.9948 9.238 13.5533 9.78671" stroke="#666666" stroke-width="2" stroke-linecap="round" stroke-linejoin="round"/>
<path d="M4.40665 4.40662C3.08065 5.30995 2.01998 6.54995 1.33331 7.99995C1.33331 7.99995 3.33331 12.6666 7.99998 12.6666C9.27731 12.67 10.5273 12.2967 11.5933 11.5933" stroke="#666666" stroke-width="2" stroke-linecap="round" stroke-linejoin="round"/>
<path d="M1.33331 1.33337L14.6666 14.6667" stroke="#666666" stroke-width="2" stroke-linecap="round" stroke-linejoin="round"/>
</g>
<defs>
<clipPath id="clip0_124_1649">
<rect width="16" height="16" fill="white"/>
</clipPath>
</defs>
</svg>
